<svg width="34" height="33" viewBox="0 0 34 33" fill="none" xmlns="http://www.w3.org/2000/svg">
<path d="M17 32.5L25.25 32.5V29.3H17C9.83901 29.3 3.80001 23.444 3.80001 16.5C3.80001 9.556 9.83901 3.7 17 3.7C24.161 3.7 30.2 9.556 30.2 16.5V18.788C30.2 20.052 29.0285 21.3 27.725 21.3C26.4215 21.3 25.25 20.052 25.25 18.788V16.5C25.25 12.084 21.554 8.5 17 8.5C12.446 8.5 8.75001 12.084 8.75001 16.5C8.75001 20.916 12.446 24.5 17 24.5C19.277 24.5 21.356 23.604 22.841 22.148C23.9135 23.572 25.7615 24.5 27.725 24.5C30.9755 24.5 33.5 21.94 33.5 18.788V16.5C33.5 7.668 26.108 0.5 17 0.5C7.89201 0.5 0.500008 7.668 0.500008 16.5C0.500008 25.332 7.89201 32.5 17 32.5ZM17 21.3C14.261 21.3 12.05 19.156 12.05 16.5C12.05 13.844 14.261 11.7 17 11.7C19.739 11.7 21.95 13.844 21.95 16.5C21.95 19.156 19.739 21.3 17 21.3Z" fill="#242632"/>
</svg>
