<svg width="34" height="33" viewBox="0 0 34 33" fill="none" xmlns="http://www.w3.org/2000/svg">
<path d="M17 0.499969C7.83333 0.499969 0.5 7.61108 0.5 16.5C0.5 25.3889 7.83333 32.5 17 32.5C26.1667 32.5 33.5 25.3889 33.5 16.5C33.5 7.61108 26.1667 0.499969 17 0.499969ZM17 12.9444C19.0167 12.9444 20.6667 14.5444 20.6667 16.5C20.6667 18.4555 19.0167 20.0555 17 20.0555C14.9833 20.0555 13.3333 18.4555 13.3333 16.5C13.3333 14.5444 14.9833 12.9444 17 12.9444ZM22.1333 9.38886C22.1333 8.14441 23.2333 7.25553 24.3333 7.25553C25.4333 7.25553 26.5333 8.32219 26.5333 9.38886C26.5333 10.4555 25.6167 11.5222 24.3333 11.5222C23.05 11.5222 22.1333 10.6333 22.1333 9.38886ZM17 28.9444C9.85 28.9444 4.16667 23.4333 4.16667 16.5H9.66667C9.66667 20.4111 12.9667 23.6111 17 23.6111C21.0333 23.6111 24.3333 20.4111 24.3333 16.5H29.8333C29.8333 23.4333 24.15 28.9444 17 28.9444Z" fill="#242632"/>
</svg>
