<svg width="34" height="33" viewBox="0 0 34 33" fill="none" xmlns="http://www.w3.org/2000/svg">
<path d="M17 0.5C7.88788 0.5 0.5 7.664 0.5 16.5C0.5 25.336 7.88788 32.5 17 32.5C26.1121 32.5 33.5 25.336 33.5 16.5C33.5 7.664 26.1121 0.5 17 0.5ZM25.1042 11.4613L22.3955 23.8347C22.1961 24.712 21.6571 24.9253 20.905 24.512L16.78 21.5653L14.7918 23.424C14.6943 23.5463 14.5693 23.6453 14.4263 23.7135C14.2833 23.7817 14.1261 23.8172 13.9667 23.8173H13.9599L14.2528 19.7453L21.8978 13.0493C22.2278 12.7653 21.8235 12.604 21.3849 12.888L11.94 18.656L7.87 17.424C6.99 17.1533 6.96525 16.5707 8.05562 16.152L23.9589 10.208C24.6986 9.94667 25.3421 10.3787 25.1029 11.4627L25.1042 11.4613Z" fill="#242632"/>
</svg>
